<svg width="94" height="20" viewBox="0 0 94 20" fill="none" xmlns="http://www.w3.org/2000/svg">
<path d="M19.3316 12.4191C18.0209 17.7763 12.696 21.0365 7.438 19.7006C2.18216 18.365 -1.01742 12.9388 0.293938 7.58198C1.60407 2.22422 6.92892 -1.03637 12.1854 0.299246C17.4431 1.63486 20.6423 7.06168 19.3316 12.4191Z" fill="#FCA014"/>
<path d="M14.1395 8.57478C14.3348 7.24417 13.3406 6.52886 11.9811 6.05168L12.4221 4.24919L11.3454 3.97576L10.916 5.73074C10.6329 5.65887 10.3422 5.59106 10.0533 5.52387L10.4857 3.75732L9.4096 3.48389L8.96829 5.28574C8.73399 5.23137 8.50398 5.17762 8.28072 5.12106L8.28194 5.11544L6.79702 4.73762L6.51058 5.90949C6.51058 5.90949 7.30947 6.09605 7.29261 6.10761C7.7287 6.21855 7.80751 6.5126 7.79433 6.74573L7.29199 8.79915C7.32204 8.80696 7.361 8.81821 7.40393 8.83571C7.36805 8.82665 7.32972 8.81664 7.29015 8.80696L6.58601 11.6835C6.53265 11.8185 6.39741 12.021 6.09258 11.9441C6.10331 11.9601 5.30993 11.7451 5.30993 11.7451L4.77539 13.001L6.1766 13.3569C6.43728 13.4235 6.69274 13.4932 6.94421 13.5588L6.49862 15.3819L7.57414 15.6553L8.01544 13.8516C8.30924 13.9328 8.59445 14.0078 8.87353 14.0785L8.43376 15.8738L9.5105 16.1472L9.9561 14.3275C11.7922 14.6816 13.1728 14.5388 13.754 12.8466C14.2223 11.4841 13.7307 10.6982 12.7647 10.1857C13.4682 10.0204 13.9981 9.54883 14.1395 8.57478ZM11.6793 12.0901C11.3466 13.4525 9.09525 12.716 8.36536 12.5313L8.95664 10.116C9.68653 10.3016 12.0271 10.6691 11.6793 12.0901ZM12.0124 8.55509C11.7088 9.79445 9.83496 9.16477 9.22713 9.01039L9.7632 6.8198C10.371 6.97417 12.3286 7.26229 12.0124 8.55509Z" fill="white"/>
<g opacity="0.5">
<path d="M28.7591 6.04963C29.5549 6.04963 30.2425 6.19494 30.8203 6.48025C31.4008 6.76837 31.8798 7.1565 32.2641 7.64462C32.6431 8.13524 32.9253 8.70867 33.1074 9.36585C33.2884 10.0249 33.3792 10.7333 33.3792 11.4918C33.3792 12.6568 33.1697 13.7574 32.7468 14.7949C32.3239 15.8339 31.7501 16.7352 31.0202 17.5039C30.2909 18.2717 29.4298 18.877 28.4367 19.3242C27.4453 19.7717 26.3673 19.9954 25.2099 19.9954C25.0602 19.9954 24.7971 19.9911 24.4254 19.9832C24.0537 19.9754 23.6265 19.9364 23.1481 19.8704C22.6666 19.802 22.1575 19.7007 21.6199 19.5651C21.0826 19.432 20.5723 19.2454 20.0917 19.0086L24.3889 0.610006L28.2377 0.00219727L26.6991 6.5312C27.0285 6.37995 27.3603 6.26276 27.6915 6.17744C28.023 6.09338 28.3788 6.04963 28.7591 6.04963ZM25.5307 16.8842C26.1103 16.8842 26.6565 16.7389 27.1696 16.4536C27.6842 16.168 28.1282 15.7824 28.5002 15.302C28.8722 14.8195 29.1666 14.2761 29.3813 13.6689C29.596 13.0618 29.7046 12.4283 29.7046 11.7693C29.7046 10.9596 29.5718 10.328 29.3071 9.87147C29.0424 9.41679 28.5527 9.18804 27.8415 9.18804C27.6084 9.18804 27.3082 9.23335 26.9359 9.31429C26.5623 9.40022 26.228 9.57866 25.9284 9.8471L24.2902 16.7808C24.3889 16.7986 24.4763 16.8155 24.5508 16.8314C24.6238 16.8486 24.7045 16.8608 24.7848 16.8692C24.8698 16.8789 24.967 16.8839 25.0845 16.8839C25.2019 16.8839 25.3488 16.8842 25.5307 16.8842Z" fill="#1A202C"/>
<path d="M37.3704 19.6434H33.6943L36.7988 6.33202H40.5001L37.3704 19.6434ZM39.1593 4.71016C38.6462 4.71016 38.181 4.55454 37.7682 4.24266C37.352 3.93267 37.1459 3.45549 37.1459 2.81237C37.1459 2.45862 37.2165 2.12674 37.3563 1.81362C37.4983 1.50113 37.6838 1.23207 37.9163 1.00332C38.1485 0.77645 38.4174 0.595198 38.7229 0.458637C39.0302 0.324263 39.3571 0.25708 39.7055 0.25708C40.2182 0.25708 40.681 0.412704 41.0953 0.724576C41.5081 1.03801 41.7157 1.51519 41.7157 2.15487C41.7157 2.50987 41.6455 2.84299 41.5044 3.15549C41.3643 3.46798 41.1788 3.73704 40.9463 3.96579C40.716 4.19297 40.4446 4.3736 40.1397 4.50891C39.8321 4.64547 39.5064 4.71016 39.1593 4.71016Z" fill="#1A202C"/>
<path d="M43.7212 3.01528L47.5716 2.40747L46.6261 6.33118H50.7497L50.0051 9.41802H45.9063L44.8145 14.0742C44.7139 14.4624 44.6569 14.8248 44.641 15.1617C44.6229 15.5002 44.6649 15.7908 44.7642 16.0355C44.863 16.2808 45.0406 16.4698 45.2982 16.6036C45.5545 16.7395 45.9216 16.808 46.4031 16.808C46.7997 16.808 47.1861 16.7695 47.5596 16.6933C47.931 16.6183 48.3073 16.5139 48.6882 16.3773L48.9624 19.2636C48.4655 19.4492 47.9276 19.6089 47.348 19.7432C46.7675 19.8795 46.0802 19.9451 45.2859 19.9451C44.1438 19.9451 43.2584 19.7723 42.6276 19.4282C41.9977 19.0817 41.5524 18.6083 41.2859 18.0089C41.0231 17.4117 40.9056 16.7233 40.9384 15.9477C40.9725 15.1702 41.0875 14.353 41.2859 13.4924L43.7212 3.01528Z" fill="#1A202C"/>
</g>
<path d="M50.5889 14.3277C50.5889 13.1812 50.771 12.0999 51.1351 11.0878C51.4985 10.0746 52.022 9.18871 52.7013 8.4284C53.3781 7.67185 54.2028 7.07248 55.1734 6.63248C56.1394 6.19498 57.2211 5.97437 58.4131 5.97437C59.1593 5.97437 59.8257 6.04624 60.4121 6.1903C61.0009 6.33561 61.5336 6.52343 62.0154 6.75905L60.7476 9.69652C60.4164 9.55965 60.0726 9.43902 59.7171 9.32964C59.3614 9.21808 58.9271 9.16434 58.4134 9.16434C57.1864 9.16434 56.2164 9.59527 55.4945 10.4543C54.7753 11.314 54.4131 12.4712 54.4131 13.9227C54.4131 14.783 54.5953 15.4786 54.9609 16.0108C55.3246 16.543 55.9965 16.8077 56.9721 16.8077C57.4535 16.8077 57.9182 16.7564 58.3631 16.6565C58.8115 16.5552 59.2074 16.4277 59.5561 16.2771L59.8306 19.2883C59.3657 19.472 58.8529 19.638 58.2905 19.7833C57.7268 19.9236 57.0558 19.9964 56.2777 19.9964C55.2507 19.9964 54.3812 19.8433 53.6701 19.5417C52.9586 19.2355 52.3707 18.8289 51.9076 18.3139C51.442 17.7977 51.1078 17.1949 50.9011 16.503C50.6944 15.8118 50.5889 15.0855 50.5889 14.3277Z" fill="#1A202C"/>
<path d="M66.9185 19.9964C66.0411 19.9964 65.279 19.8602 64.6326 19.5905C63.9879 19.3208 63.454 18.9424 63.0317 18.4517C62.6088 17.9636 62.2923 17.3852 62.0755 16.7186C61.8587 16.0524 61.7544 15.3146 61.7544 14.5062C61.7544 13.4921 61.9142 12.4784 62.2371 11.4674C62.5585 10.4543 63.0354 9.54402 63.6665 8.73497C64.2928 7.92466 65.0653 7.26216 65.9749 6.7456C66.8836 6.23248 67.9287 5.97437 69.1027 5.97437C69.9642 5.97437 70.7223 6.11092 71.3776 6.38061C72.0299 6.64967 72.5672 7.03123 72.992 7.51935C73.4121 8.00997 73.7314 8.58591 73.9461 9.2534C74.1623 9.91839 74.269 10.6581 74.269 11.4671C74.269 12.478 74.1114 13.4918 73.7986 14.5058C73.4854 15.5149 73.0208 16.4274 72.4075 17.2383C71.7953 18.0474 71.0299 18.7096 70.1104 19.2239C69.1923 19.7383 68.1275 19.9964 66.9185 19.9964ZM68.7559 9.16465C68.2109 9.16465 67.7291 9.32589 67.3166 9.64432C66.9026 9.96651 66.5548 10.3715 66.2745 10.8599C65.9911 11.3506 65.7811 11.8856 65.6391 12.4671C65.4983 13.0499 65.4293 13.6009 65.4293 14.1243C65.4293 14.969 65.563 15.6268 65.8259 16.1002C66.0924 16.5711 66.5711 16.808 67.2669 16.808C67.8137 16.808 68.2931 16.648 68.708 16.3261C69.1196 16.0065 69.4677 15.6011 69.7501 15.1118C70.0316 14.6237 70.2435 14.0871 70.3855 13.5046C70.5245 12.9237 70.5953 12.3696 70.5953 11.8471C70.5953 11.0046 70.4622 10.3453 70.1969 9.87245C69.932 9.40152 69.4511 9.16465 68.7559 9.16465Z" fill="#1A202C"/>
<path d="M78.2759 19.6434H74.5967L77.7012 6.33202H81.4043L78.2759 19.6434ZM80.062 4.71016C79.5492 4.71016 79.0843 4.55454 78.6721 4.24266C78.2581 3.93267 78.0502 3.45549 78.0502 2.81237C78.0502 2.45862 78.1216 2.12674 78.2618 1.81362C78.4019 1.50113 78.5887 1.23207 78.8212 1.00332C79.0521 0.77645 79.3235 0.595198 79.6283 0.458637C79.9338 0.324263 80.2607 0.25708 80.6079 0.25708C81.1219 0.25708 81.5862 0.412704 81.9996 0.724576C82.4133 1.03801 82.6221 1.51519 82.6221 2.15487C82.6221 2.50987 82.5479 2.84299 82.409 3.15549C82.2701 3.46798 82.0833 3.73704 81.8518 3.96579C81.6187 4.19297 81.3506 4.3736 81.0452 4.50891C80.7373 4.64547 80.411 4.71016 80.062 4.71016Z" fill="#1A202C"/>
<path d="M84.0543 6.93733C84.3334 6.8542 84.645 6.75421 84.9839 6.64546C85.324 6.53671 85.704 6.43546 86.1284 6.34421C86.5482 6.25015 87.0221 6.1739 87.5431 6.11484C88.0642 6.05453 88.6579 6.02515 89.3175 6.02515C91.2564 6.02515 92.5929 6.60046 93.3307 7.74764C94.068 8.89481 94.1956 10.4648 93.7171 12.4548L92.0261 19.6422H88.3257L89.9646 12.606C90.0646 12.1667 90.1431 11.742 90.2011 11.327C90.2597 10.9157 90.2563 10.5532 90.1879 10.2395C90.1226 9.92949 89.9686 9.67574 89.7297 9.47918C89.4871 9.28574 89.1207 9.18856 88.6235 9.18856C88.1442 9.18856 87.6566 9.24106 87.1588 9.34231L84.7493 19.6419H81.0474L84.0543 6.93733Z" fill="#1A202C"/>
</svg>
