<svg width="19" height="20" viewBox="0 0 19 20" fill="none" xmlns="http://www.w3.org/2000/svg">
<path d="M12.5416 10.1417C12.5416 10.7351 12.3657 11.3151 12.036 11.8084C11.7064 12.3018 11.2379 12.6863 10.6897 12.9134C10.1415 13.1404 9.5383 13.1998 8.95636 13.0841C8.37441 12.9683 7.83986 12.6826 7.42031 12.263C7.00075 11.8435 6.71503 11.3089 6.59927 10.727C6.48351 10.1451 6.54292 9.54185 6.76999 8.99367C6.99705 8.44549 7.38157 7.97696 7.87492 7.64732C8.36826 7.31767 8.94828 7.14172 9.54163 7.14172C10.3365 7.1442 11.0981 7.46106 11.6602 8.02313C12.2223 8.58521 12.5392 9.34683 12.5416 10.1417ZM18.9166 6.01672V14.2667C18.9166 15.6591 18.3635 16.9945 17.3789 17.979C16.3944 18.9636 15.059 19.5167 13.6666 19.5167H5.41663C4.02424 19.5167 2.68888 18.9636 1.70432 17.979C0.719749 16.9945 0.166626 15.6591 0.166626 14.2667V6.01672C0.166626 4.62434 0.719749 3.28898 1.70432 2.30441C2.68888 1.31985 4.02424 0.766724 5.41663 0.766724H13.6666C15.059 0.766724 16.3944 1.31985 17.3789 2.30441C18.3635 3.28898 18.9166 4.62434 18.9166 6.01672ZM14.0416 10.1417C14.0416 9.25171 13.7777 8.38168 13.2832 7.64166C12.7888 6.90164 12.086 6.32486 11.2637 5.98427C10.4414 5.64367 9.53663 5.55456 8.66372 5.72819C7.79081 5.90182 6.98898 6.33041 6.35965 6.95974C5.73031 7.58908 5.30173 8.3909 5.12809 9.26382C4.95446 10.1367 5.04357 11.0415 5.38417 11.8638C5.72476 12.6861 6.30154 13.3889 7.04156 13.8833C7.78158 14.3778 8.65161 14.6417 9.54163 14.6417C10.7351 14.6417 11.8797 14.1676 12.7236 13.3237C13.5675 12.4798 14.0416 11.3352 14.0416 10.1417ZM15.5416 5.26672C15.5416 5.04422 15.4756 4.82671 15.352 4.64171C15.2284 4.4567 15.0527 4.31251 14.8471 4.22736C14.6416 4.14221 14.4154 4.11993 14.1971 4.16334C13.9789 4.20675 13.7785 4.31389 13.6211 4.47123C13.4638 4.62856 13.3567 4.82902 13.3132 5.04725C13.2698 5.26548 13.2921 5.49168 13.3773 5.69724C13.4624 5.90281 13.6066 6.07851 13.7916 6.20213C13.9766 6.32574 14.1941 6.39172 14.4166 6.39172C14.715 6.39172 15.0011 6.2732 15.2121 6.06222C15.4231 5.85124 15.5416 5.56509 15.5416 5.26672Z" fill="black"/>
</svg>
