<svg width="28" height="25" viewBox="0 0 28 25" fill="none" xmlns="http://www.w3.org/2000/svg">
<path d="M13.8667 12.3334C14.7742 12.3334 15.5513 12.0982 16.1981 11.6278C16.8449 11.1574 17.1678 10.5926 17.1667 9.93337C17.1667 9.27337 16.8433 8.70817 16.1965 8.23777C15.5497 7.76737 14.7731 7.53257 13.8667 7.53337C12.9592 7.53337 12.182 7.76857 11.5352 8.23897C10.8884 8.70937 10.5656 9.27417 10.5667 9.93337C10.5667 10.5934 10.8901 11.1586 11.5369 11.629C12.1837 12.0994 12.9603 12.3342 13.8667 12.3334ZM13.8667 24.3334C9.43919 21.5934 6.13259 19.0486 3.94689 16.699C1.76119 14.3494 0.667787 12.1742 0.666687 10.1734C0.666687 7.17337 1.99384 4.78337 4.64814 3.00337C7.30244 1.22337 10.3753 0.333374 13.8667 0.333374C17.3592 0.333374 20.4326 1.22337 23.0869 3.00337C25.7412 4.78337 27.0678 7.17337 27.0667 10.1734C27.0667 12.1734 25.9733 14.3486 23.7865 16.699C21.5997 19.0494 18.2931 21.5942 13.8667 24.3334Z" fill="black"/>
</svg>
