<svg width="21" height="15" viewBox="0 0 21 15" fill="none" xmlns="http://www.w3.org/2000/svg">
<path d="M8.83667 10.1417L14.0267 7.14172L8.83667 4.14172V10.1417ZM20.3967 2.31172C20.5267 2.78172 20.6167 3.41172 20.6767 4.21172C20.7467 5.01172 20.7767 5.70172 20.7767 6.30172L20.8367 7.14172C20.8367 9.33172 20.6767 10.9417 20.3967 11.9717C20.1467 12.8717 19.5667 13.4517 18.6667 13.7017C18.1967 13.8317 17.3367 13.9217 16.0167 13.9817C14.7167 14.0517 13.5267 14.0817 12.4267 14.0817L10.8367 14.1417C6.64667 14.1417 4.03667 13.9817 3.00667 13.7017C2.10667 13.4517 1.52667 12.8717 1.27667 11.9717C1.14667 11.5017 1.05667 10.8717 0.99667 10.0717C0.92667 9.27172 0.89667 8.58172 0.89667 7.98172L0.83667 7.14172C0.83667 4.95172 0.99667 3.34172 1.27667 2.31172C1.52667 1.41172 2.10667 0.831724 3.00667 0.581724C3.47667 0.451724 4.33667 0.361723 5.65667 0.301723C6.95667 0.231723 8.14667 0.201724 9.24667 0.201724L10.8367 0.141724C15.0267 0.141724 17.6367 0.301724 18.6667 0.581724C19.5667 0.831724 20.1467 1.41172 20.3967 2.31172Z" fill="black"/>
</svg>
