<svg width="23" height="23" viewBox="0 0 23 23" fill="none" xmlns="http://www.w3.org/2000/svg">
<path d="M21.4275 22.3334C18.5678 22.3334 15.8774 21.7925 13.3564 20.7109C10.8355 19.6292 8.63567 18.1486 6.75704 16.2691C4.8784 14.3903 3.39354 12.1903 2.30243 9.66907C1.21133 7.14787 0.666148 4.44884 0.666881 1.57197C0.648549 1.24197 0.75854 0.953041 0.996852 0.705174C1.23516 0.457307 1.52847 0.333374 1.87677 0.333374H6.16639C6.49636 0.333374 6.7805 0.457307 7.01881 0.705174C7.25712 0.953041 7.37628 1.25077 7.37628 1.59837C7.37628 2.40504 7.43128 3.16587 7.54127 3.88087C7.65126 4.59587 7.82541 5.27421 8.06372 5.91587C8.15538 6.11754 8.17371 6.32361 8.11871 6.53407C8.06372 6.74454 7.95373 6.94181 7.78874 7.12587L5.03899 9.87587C5.82725 11.4892 6.94549 13.02 8.39369 14.4684C9.84189 15.9167 11.4001 17.0717 13.0683 17.9334L15.818 15.1834C15.983 15.0184 16.1755 14.9084 16.3955 14.8534C16.6155 14.7984 16.8354 14.8167 17.0554 14.9084C17.7337 15.1284 18.4351 15.2981 19.1595 15.4177C19.884 15.5372 20.6308 15.5966 21.4 15.5959C21.7483 15.5959 22.0464 15.7242 22.2942 15.9809C22.5421 16.2375 22.6656 16.5492 22.6649 16.9159V21.1234C22.6649 21.4534 22.5458 21.7375 22.3074 21.9759C22.0691 22.2142 21.7758 22.3334 21.4275 22.3334ZM15.1031 19.0334C15.928 19.345 16.7896 19.5925 17.6879 19.7759C18.5861 19.9592 19.5119 20.0784 20.4651 20.1334V17.7684C19.8968 17.7317 19.3146 17.6675 18.7185 17.5759C18.1223 17.4842 17.5313 17.3467 16.9454 17.1634L15.1031 19.0334ZM20.4651 11.3334C20.4651 8.87671 19.6127 6.79587 17.9078 5.09087C16.203 3.38587 14.1223 2.53337 11.6659 2.53337V0.333374C13.1874 0.333374 14.6173 0.622307 15.9555 1.20017C17.2937 1.77804 18.4578 2.56161 19.4477 3.55087C20.4376 4.54087 21.2215 5.70504 21.7993 7.04337C22.3771 8.38171 22.6656 9.81171 22.6649 11.3334H20.4651ZM16.0655 11.3334C16.0655 10.1234 15.6347 9.08754 14.7731 8.22587C13.9115 7.36421 12.8758 6.93337 11.6659 6.93337V4.73337C13.4991 4.73337 15.0573 5.37504 16.3405 6.65837C17.6237 7.94171 18.2653 9.50004 18.2653 11.3334H16.0655ZM3.96659 7.84087L5.78142 5.99837C5.63477 5.46671 5.51085 4.90754 5.40966 4.32087C5.30847 3.73421 5.23991 3.13837 5.20398 2.53337H2.89418C2.93085 3.41337 3.04084 4.29337 3.22415 5.17337C3.40747 6.05337 3.65495 6.94254 3.96659 7.84087Z" fill="black"/>
</svg>
