<svg width="22" height="18" viewBox="0 0 22 18" fill="none" xmlns="http://www.w3.org/2000/svg">
<path d="M21.8366 2.64172C21.0666 2.99172 20.2366 3.22172 19.3766 3.33172C20.2566 2.80172 20.9366 1.96172 21.2566 0.951724C20.4266 1.45172 19.5066 1.80172 18.5366 2.00172C17.7466 1.14172 16.6366 0.641724 15.3766 0.641724C13.0266 0.641724 11.1066 2.56172 11.1066 4.93172C11.1066 5.27172 11.1466 5.60172 11.2166 5.91172C7.65663 5.73172 4.48663 4.02172 2.37663 1.43172C2.00663 2.06172 1.79663 2.80172 1.79663 3.58172C1.79663 5.07172 2.54663 6.39172 3.70663 7.14172C2.99663 7.14172 2.33663 6.94172 1.75663 6.64172V6.67172C1.75663 8.75172 3.23663 10.4917 5.19663 10.8817C4.56735 11.0539 3.90672 11.0779 3.26663 10.9517C3.53823 11.8042 4.07016 12.5501 4.78764 13.0847C5.50512 13.6192 6.37207 13.9154 7.26663 13.9317C5.75026 15.1322 3.87062 15.781 1.93663 15.7717C1.59663 15.7717 1.25663 15.7517 0.916626 15.7117C2.81663 16.9317 5.07663 17.6417 7.49663 17.6417C15.3766 17.6417 19.7066 11.1017 19.7066 5.43172C19.7066 5.24172 19.7066 5.06172 19.6966 4.87172C20.5366 4.27172 21.2566 3.51172 21.8366 2.64172Z" fill="black"/>
</svg>
